# xmcd
#
# Track frame offsets: 
#        163
#        13890
#        26552
#        40227
#        54890
#        74430
#        90847
#        108050
#        122308
#        133732
#        157990
#        174454
#        186255
#        200513
#        218702
#
# Disc length: 3248 seconds
#
# Revision: 1
# Processed by: cddbd v1.5.2PL0 Copyright (c) Steve Scherf et al.
# Submitted via: ExactAudioCopy v0.99pb4
#
DISCID=bf0cae0f
DTITLE=Various Artist - JEZZ CAFE CD II - House Blend
DYEAR=2009
DGENRE=Jazz
TTITLE0=Sarah Vaughan - You Got to My Heart
TTITLE1=Billie Holliday - Them There Eyes
TTITLE2=Louis Armstrong - C'est si bon
TTITLE3=Peggy Lee - Blues In the Night
TTITLE4=Sarah Vaughan - In a sentimental mood
TTITLE5=Ella Fitzgerald - Moonlight in Vermont
TTITLE6=Etta Jones - Don't go to Strangers
TTITLE7=Robin Mckelle - Something's Gotta Give
TTITLE8=Mina Agossi - Why don't you do Right ?
TTITLE9=Abbey Lincoln - Straight Ahead
TTITLE10=Lena Horne - Everytime we say goodbye
TTITLE11=Lily Frost - Love me or Leave Me
TTITLE12=Sara Lazarus - This Can't be love
TTITLE13=Terez Montcalm - Sweet Dreams
TTITLE14=Andre Ceccarelli feat. Stephy Haik - Walk on the wild side
EXTD=YEAR: 2009
EXTT0=
EXTT1=
EXTT2=
EXTT3=
EXTT4=
EXTT5=
EXTT6=
EXTT7=
EXTT8=
EXTT9=
EXTT10=
EXTT11=
EXTT12=
EXTT13=
EXTT14=
PLAYORDER=
